<?xml version="1.0" encoding="UTF-8" standalone="no"?>
<!-- Created with Inkscape (http://www.inkscape.org/) -->

<svg
   xmlns:dc="http://purl.org/dc/elements/1.1/"
   xmlns:cc="http://creativecommons.org/ns#"
   xmlns:rdf="http://www.w3.org/1999/02/22-rdf-syntax-ns#"
   xmlns:svg="http://www.w3.org/2000/svg"
   xmlns="http://www.w3.org/2000/svg"
   xmlns:sodipodi="http://sodipodi.sourceforge.net/DTD/sodipodi-0.dtd"
   xmlns:inkscape="http://www.inkscape.org/namespaces/inkscape"
   width="200"
   height="200"
   viewBox="0 0 52.916666 52.916666"
   version="1.1"
   id="svg821"
   inkscape:version="0.92.3 (2405546, 2018-03-11)"
   sodipodi:docname="launch.svg">
  <defs
     id="defs815">
    <inkscape:path-effect
       effect="bspline"
       id="path-effect5124"
       is_visible="true"
       weight="33.333333"
       steps="2"
       helper_size="0"
       apply_no_weight="true"
       apply_with_weight="true"
       only_selected="false" />
    <inkscape:path-effect
       effect="bspline"
       id="path-effect5120"
       is_visible="true"
       weight="33.333333"
       steps="2"
       helper_size="0"
       apply_no_weight="true"
       apply_with_weight="true"
       only_selected="false" />
  </defs>
  <sodipodi:namedview
     id="base"
     pagecolor="#ffffff"
     bordercolor="#666666"
     borderopacity="1.0"
     inkscape:pageopacity="0.0"
     inkscape:pageshadow="2"
     inkscape:zoom="4.4352548"
     inkscape:cx="82.299768"
     inkscape:cy="105.16458"
     inkscape:document-units="mm"
     inkscape:current-layer="layer1"
     showgrid="false"
     units="px"
     inkscape:snap-bbox="false"
     inkscape:snap-global="false"
     inkscape:window-width="1920"
     inkscape:window-height="1017"
     inkscape:window-x="-8"
     inkscape:window-y="-8"
     inkscape:window-maximized="1">
    <inkscape:grid
       type="xygrid"
       id="grid1368" />
  </sodipodi:namedview>
  <metadata
     id="metadata818">
    <rdf:RDF>
      <cc:Work
         rdf:about="">
        <dc:format>image/svg+xml</dc:format>
        <dc:type
           rdf:resource="http://purl.org/dc/dcmitype/StillImage" />
        <dc:title></dc:title>
      </cc:Work>
    </rdf:RDF>
  </metadata>
  <g
     inkscape:label="Layer 1"
     inkscape:groupmode="layer"
     id="layer1"
     transform="translate(0,-244.08334)">
    <path
       style="fill:#cccccc;fill-rule:evenodd;stroke:none;stroke-width:0.26458332px;stroke-linecap:butt;stroke-linejoin:miter;stroke-opacity:1"
       d="m 15.875,285.09376 c 0,0 -2.503514,-2.65554 -2.645833,-11.90625 0,-5.29167 3.357426,-21.20872 7.326176,-21.20872 3.96875,0 7.225907,15.91705 7.225907,21.20872 0.07116,9.17955 -2.645834,11.90625 -2.645834,11.90625 h 1e-6 c 0,0 -0.383318,-6.30677 -2.645834,-7.9375 -1.073206,-0.77352 -2.895544,-0.77352 -3.96875,0 -2.262516,1.63073 -2.645833,7.9375 -2.645833,7.9375 z"
       id="path5073"
       inkscape:connector-curvature="0"
       sodipodi:nodetypes="cczcccaac" />
    <path
       style="fill:#d40000;fill-rule:evenodd;stroke:none;stroke-width:0.26458332px;stroke-linecap:butt;stroke-linejoin:miter;stroke-opacity:1"
       d="m 18.520833,281.12501 c 0,0 -0.631484,1.69034 -0.640434,2.57467 -0.01841,1.81876 1.209709,5.32078 1.209709,5.32078 l 1.394076,-2.67495 1.33442,3.53313 c 0,0 1.319421,-4.06091 1.290388,-6.15793 -0.01231,-0.88944 -0.619409,-2.5957 -0.619409,-2.5957"
       id="path5077"
       inkscape:connector-curvature="0"
       sodipodi:nodetypes="cacccac" />
    <path
       style="fill:#ff6600;fill-rule:evenodd;stroke:none;stroke-width:0.26458332px;stroke-linecap:butt;stroke-linejoin:miter;stroke-opacity:1"
       d="m 18.520833,281.12501 c 0,0 0.484136,-2.12744 1.322917,-2.64584 0.375113,-0.23183 0.947803,-0.23183 1.322916,0 0.838781,0.5184 1.322917,2.64584 1.322917,2.64584 l -0.921029,0.78275 -1.063346,-0.78275 -0.921029,0.78275 -1.063346,-0.78275"
       id="path5075"
       inkscape:connector-curvature="0"
       sodipodi:nodetypes="caaccccc" />
    <path
       style="fill:#87cefa;fill-opacity:1;fill-rule:evenodd;stroke:none;stroke-width:0.26458332px;stroke-linecap:butt;stroke-linejoin:miter;stroke-opacity:1"
       d="m 20.558041,251.93799 c -1.038025,0 -2.028419,1.12079 -2.933671,2.8236 h 5.850289 c -0.895117,-1.70279 -1.878601,-2.8236 -2.916618,-2.8236 z"
       id="path5073-1"
       inkscape:connector-curvature="0" />
    <circle
       style="fill:#000000;fill-opacity:1;stroke:none;stroke-width:0.03106796;stroke-linejoin:round;stroke-miterlimit:4;stroke-dasharray:none;stroke-opacity:1"
       id="path5099"
       cx="20.521181"
       cy="260.61069"
       r="1.9089466" />
    <circle
       style="fill:#ffffff;fill-opacity:1;stroke:none;stroke-width:0.02912621;stroke-linejoin:round;stroke-miterlimit:4;stroke-dasharray:none;stroke-opacity:1"
       id="path5099-2"
       cx="20.521181"
       cy="260.61069"
       r="1.7896376" />
    <path
       style="fill:#cccccc;fill-opacity:1;fill-rule:evenodd;stroke:#000000;stroke-width:0.13229167;stroke-linecap:butt;stroke-linejoin:miter;stroke-miterlimit:4;stroke-dasharray:none;stroke-opacity:1"
       d="m 20.521181,263.29516 c 0,3.89717 0,7.79461 0,11.6923"
       id="path5122"
       inkscape:connector-curvature="0"
       inkscape:path-effect="#path-effect5124"
       inkscape:original-d="m 20.521181,263.29516 c 2.64e-4,3.89717 2.64e-4,7.79461 0,11.6923" />
  </g>
</svg>
