<?xml version="1.0" encoding="UTF-8" standalone="no"?>
<!-- Created with Inkscape (http://www.inkscape.org/) -->

<svg
   xmlns:dc="http://purl.org/dc/elements/1.1/"
   xmlns:cc="http://creativecommons.org/ns#"
   xmlns:rdf="http://www.w3.org/1999/02/22-rdf-syntax-ns#"
   xmlns:svg="http://www.w3.org/2000/svg"
   xmlns="http://www.w3.org/2000/svg"
   xmlns:sodipodi="http://sodipodi.sourceforge.net/DTD/sodipodi-0.dtd"
   xmlns:inkscape="http://www.inkscape.org/namespaces/inkscape"
   width="200"
   height="200"
   viewBox="0 0 52.916666 52.916666"
   version="1.1"
   id="svg821"
   inkscape:version="0.92.3 (2405546, 2018-03-11)"
   sodipodi:docname="launch.svg">
  <defs
     id="defs815">
    <inkscape:path-effect
       effect="bspline"
       id="path-effect5124"
       is_visible="true"
       weight="33.333333"
       steps="2"
       helper_size="0"
       apply_no_weight="true"
       apply_with_weight="true"
       only_selected="false" />
    <inkscape:path-effect
       effect="bspline"
       id="path-effect5120"
       is_visible="true"
       weight="33.333333"
       steps="2"
       helper_size="0"
       apply_no_weight="true"
       apply_with_weight="true"
       only_selected="false" />
  </defs>
  <sodipodi:namedview
     id="base"
     pagecolor="#ffffff"
     bordercolor="#666666"
     borderopacity="1.0"
     inkscape:pageopacity="0.0"
     inkscape:pageshadow="2"
     inkscape:zoom="2.2176274"
     inkscape:cx="82.299768"
     inkscape:cy="79.173106"
     inkscape:document-units="mm"
     inkscape:current-layer="layer1"
     showgrid="false"
     units="px"
     inkscape:snap-bbox="false"
     inkscape:snap-global="false"
     inkscape:window-width="1920"
     inkscape:window-height="1017"
     inkscape:window-x="-8"
     inkscape:window-y="-8"
     inkscape:window-maximized="1">
    <inkscape:grid
       type="xygrid"
       id="grid1368" />
  </sodipodi:namedview>
  <metadata
     id="metadata818">
    <rdf:RDF>
      <cc:Work
         rdf:about="">
        <dc:format>image/svg+xml</dc:format>
        <dc:type
           rdf:resource="http://purl.org/dc/dcmitype/StillImage" />
        <dc:title />
      </cc:Work>
    </rdf:RDF>
  </metadata>
  <g
     inkscape:label="Layer 1"
     inkscape:groupmode="layer"
     id="layer1"
     transform="translate(0,-244.08334)">
    <path
       style="fill:#cccccc;fill-rule:evenodd;stroke:none;stroke-width:0.40696466px;stroke-linecap:butt;stroke-linejoin:miter;stroke-opacity:1"
       d="m 10.987134,285.5196 c 0,0 -1.2925502,-5.4627 5.632288,-17.89469 4.06965,-7.04884 20.783232,-25.66928 26.06986,-22.61703 5.286626,3.05223 -2.615914,26.75972 -6.685564,33.80855 -6.9649,12.28248 -12.681124,13.82507 -12.681124,13.82507 h 1e-6 c 0,0 4.339726,-8.69581 2.580052,-12.60808 -0.834689,-1.85574 -3.262159,-3.25724 -5.286626,-3.05224 -4.267955,0.43222 -9.628887,8.53842 -9.628887,8.53842 z"
       id="path5073"
       inkscape:connector-curvature="0"
       sodipodi:nodetypes="cczcccaac" />
    <path
       style="fill:#d40000;fill-rule:evenodd;stroke:none;stroke-width:0.40696466px;stroke-linecap:butt;stroke-linejoin:miter;stroke-opacity:1"
       d="m 17.563786,282.26781 c 0,0 -2.141162,1.766 -2.833193,2.93709 -1.423271,2.40854 -2.480628,8.01797 -2.480628,8.01797 l 3.914214,-2.49107 -0.939682,5.73261 c 0,0 4.880665,-4.39467 6.45474,-7.21036 0.667642,-1.19425 1.171175,-3.934 1.171175,-3.934"
       id="path5077"
       inkscape:connector-curvature="0"
       sodipodi:nodetypes="cacccac" />
    <path
       style="fill:#ff6600;fill-rule:evenodd;stroke:none;stroke-width:0.40696466px;stroke-linecap:butt;stroke-linejoin:miter;stroke-opacity:1"
       d="m 17.563786,282.26781 c 0,0 2.281045,-2.46155 3.797038,-2.50701 0.677968,-0.0203 1.440827,0.42011 1.762208,1.01741 0.718625,1.33562 -0.27262,4.54184 -0.27262,4.54184 l -1.828856,0.33433 -0.814456,-1.86044 -1.828857,0.33434 -0.814457,-1.86047"
       id="path5075"
       inkscape:connector-curvature="0"
       sodipodi:nodetypes="caaccccc" />
    <path
       style="fill:#87cefa;fill-opacity:1;fill-rule:evenodd;stroke:none;stroke-width:0.40696466px;stroke-linecap:butt;stroke-linejoin:miter;stroke-opacity:1"
       d="m 42.724252,244.9556 c -1.382713,-0.79831 -3.563944,-0.067 -6.079372,1.50503 l 7.792956,4.49926 c 0.117206,-2.95663 -0.330879,-5.20599 -1.713584,-6.00429 z"
       id="path5073-1"
       inkscape:connector-curvature="0" />
    <circle
       style="fill:#000000;fill-opacity:1;stroke:none;stroke-width:0.04778669;stroke-linejoin:round;stroke-miterlimit:4;stroke-dasharray:none;stroke-opacity:1"
       id="path5099"
       cx="159.4214"
       cy="204.11543"
       r="2.9362164"
       transform="rotate(30)" />
    <circle
       style="fill:#ffffff;fill-opacity:1;stroke:none;stroke-width:0.04480002;stroke-linejoin:round;stroke-miterlimit:4;stroke-dasharray:none;stroke-opacity:1"
       id="path5099-2"
       cx="159.4214"
       cy="204.11543"
       r="2.752703"
       transform="rotate(30)" />
    <path
       style="fill:#cccccc;fill-opacity:1;fill-rule:evenodd;stroke:#000000;stroke-width:0.20348236;stroke-linecap:butt;stroke-linejoin:miter;stroke-miterlimit:4;stroke-dasharray:none;stroke-opacity:1"
       d="m 33.940729,260.05572 c -2.997185,5.19128 -5.994578,10.38292 -8.992164,15.57489"
       id="path5122"
       inkscape:connector-curvature="0"
       inkscape:path-effect="#path-effect5124"
       inkscape:original-d="m 33.940729,260.05572 c -2.996835,5.19148 -5.994228,10.38312 -8.992164,15.57489" />
  </g>
</svg>
